<mxfile host="app.diagrams.net" modified="2024-01-07T23:38:01.746Z" agent="Mozilla/5.0 (X11; Linux x86_64; rv:121.0) Gecko/20100101 Firefox/121.0" etag="IIBQcR2GKQs_Lj2tZbhN" version="22.1.17" type="device">
  <diagram name="Page-1" id="5d7acffa-a066-3a61-03fe-96351882024d">
    <mxGraphModel dx="1434" dy="790" grid="1" gridSize="10" guides="1" tooltips="1" connect="1" arrows="1" fold="1" page="1" pageScale="1" pageWidth="1100" pageHeight="850" background="#ffffff" math="0" shadow="0">
      <root>
        <mxCell id="0" />
        <mxCell id="1" parent="0" />
        <mxCell id="P7BU4eLgbR2WB9yUbiBU-10" style="edgeStyle=orthogonalEdgeStyle;rounded=0;orthogonalLoop=1;jettySize=auto;html=1;exitX=0.5;exitY=0;exitDx=0;exitDy=0;startArrow=classic;startFill=1;endArrow=none;endFill=0;" edge="1" parent="1" source="P7BU4eLgbR2WB9yUbiBU-1">
          <mxGeometry relative="1" as="geometry">
            <mxPoint x="170" y="60" as="targetPoint" />
          </mxGeometry>
        </mxCell>
        <mxCell id="P7BU4eLgbR2WB9yUbiBU-12" style="edgeStyle=orthogonalEdgeStyle;rounded=0;orthogonalLoop=1;jettySize=auto;html=1;exitX=0.5;exitY=1;exitDx=0;exitDy=0;entryX=0.5;entryY=0;entryDx=0;entryDy=0;startArrow=classic;startFill=1;" edge="1" parent="1" source="P7BU4eLgbR2WB9yUbiBU-1" target="P7BU4eLgbR2WB9yUbiBU-3">
          <mxGeometry relative="1" as="geometry" />
        </mxCell>
        <mxCell id="P7BU4eLgbR2WB9yUbiBU-19" value="Model request" style="edgeLabel;html=1;align=center;verticalAlign=middle;resizable=0;points=[];" vertex="1" connectable="0" parent="P7BU4eLgbR2WB9yUbiBU-12">
          <mxGeometry x="-0.0824" y="-3" relative="1" as="geometry">
            <mxPoint x="3" as="offset" />
          </mxGeometry>
        </mxCell>
        <mxCell id="P7BU4eLgbR2WB9yUbiBU-14" style="edgeStyle=orthogonalEdgeStyle;rounded=0;orthogonalLoop=1;jettySize=auto;html=1;exitX=1;exitY=0.5;exitDx=0;exitDy=0;entryX=0;entryY=0.5;entryDx=0;entryDy=0;startArrow=classic;startFill=1;" edge="1" parent="1" source="P7BU4eLgbR2WB9yUbiBU-1" target="P7BU4eLgbR2WB9yUbiBU-5">
          <mxGeometry relative="1" as="geometry" />
        </mxCell>
        <mxCell id="P7BU4eLgbR2WB9yUbiBU-15" value="Generate View" style="edgeLabel;html=1;align=center;verticalAlign=middle;resizable=0;points=[];" vertex="1" connectable="0" parent="P7BU4eLgbR2WB9yUbiBU-14">
          <mxGeometry x="-0.2" y="-1" relative="1" as="geometry">
            <mxPoint as="offset" />
          </mxGeometry>
        </mxCell>
        <mxCell id="P7BU4eLgbR2WB9yUbiBU-1" value="&lt;p style=&quot;margin:0px;margin-top:6px;text-align:center;&quot;&gt;&lt;b&gt;Controllers (actions)&lt;/b&gt;&lt;br&gt;&lt;/p&gt;&lt;hr&gt;&lt;p style=&quot;margin:0px;margin-left:8px;&quot;&gt;copy-card&lt;br&gt;copy-list&lt;/p&gt;&lt;p style=&quot;margin:0px;margin-left:8px;&quot;&gt;create-board&lt;/p&gt;&lt;p style=&quot;margin:0px;margin-left:8px;&quot;&gt;create-card&lt;/p&gt;&lt;p style=&quot;margin:0px;margin-left:8px;&quot;&gt;create-list&lt;/p&gt;&lt;p style=&quot;margin:0px;margin-left:8px;&quot;&gt;delete-board&lt;/p&gt;&lt;p style=&quot;margin:0px;margin-left:8px;&quot;&gt;delete-card&lt;/p&gt;&lt;p style=&quot;margin:0px;margin-left:8px;&quot;&gt;delete-list&lt;/p&gt;&lt;p style=&quot;margin:0px;margin-left:8px;&quot;&gt;update-board&lt;/p&gt;&lt;p style=&quot;margin:0px;margin-left:8px;&quot;&gt;update-card&lt;/p&gt;&lt;p style=&quot;margin:0px;margin-left:8px;&quot;&gt;update-card-order&lt;/p&gt;&lt;p style=&quot;margin:0px;margin-left:8px;&quot;&gt;update-list&lt;/p&gt;&lt;p style=&quot;margin:0px;margin-left:8px;&quot;&gt;update-list-order&lt;br&gt;&lt;/p&gt;" style="align=left;overflow=fill;html=1;dropTarget=0;whiteSpace=wrap;" vertex="1" parent="1">
          <mxGeometry x="80" y="110" width="180" height="230" as="geometry" />
        </mxCell>
        <mxCell id="P7BU4eLgbR2WB9yUbiBU-2" value="" style="shape=component;jettyWidth=8;jettyHeight=4;" vertex="1" parent="P7BU4eLgbR2WB9yUbiBU-1">
          <mxGeometry x="1" width="20" height="20" relative="1" as="geometry">
            <mxPoint x="-24" y="4" as="offset" />
          </mxGeometry>
        </mxCell>
        <mxCell id="P7BU4eLgbR2WB9yUbiBU-16" style="edgeStyle=orthogonalEdgeStyle;rounded=0;orthogonalLoop=1;jettySize=auto;html=1;exitX=1;exitY=0.5;exitDx=0;exitDy=0;entryX=0;entryY=0.5;entryDx=0;entryDy=0;startArrow=classic;startFill=1;" edge="1" parent="1" source="P7BU4eLgbR2WB9yUbiBU-3" target="P7BU4eLgbR2WB9yUbiBU-5">
          <mxGeometry relative="1" as="geometry" />
        </mxCell>
        <mxCell id="P7BU4eLgbR2WB9yUbiBU-18" value="Get data from Model" style="edgeLabel;html=1;align=center;verticalAlign=middle;resizable=0;points=[];" vertex="1" connectable="0" parent="P7BU4eLgbR2WB9yUbiBU-16">
          <mxGeometry relative="1" as="geometry">
            <mxPoint as="offset" />
          </mxGeometry>
        </mxCell>
        <mxCell id="P7BU4eLgbR2WB9yUbiBU-3" value="&lt;p style=&quot;margin:0px;margin-top:6px;text-align:center;&quot;&gt;&lt;b&gt;Models&lt;/b&gt;&lt;br&gt;&lt;/p&gt;&lt;hr&gt;&lt;p style=&quot;margin:0px;margin-left:8px;&quot;&gt;Board&lt;br&gt;List&lt;/p&gt;&lt;p style=&quot;margin:0px;margin-left:8px;&quot;&gt;Card&lt;/p&gt;&lt;p style=&quot;margin:0px;margin-left:8px;&quot;&gt;Entity&lt;/p&gt;&lt;p style=&quot;margin:0px;margin-left:8px;&quot;&gt;AuditLog&lt;br&gt;&lt;/p&gt;" style="align=left;overflow=fill;html=1;dropTarget=0;whiteSpace=wrap;" vertex="1" parent="1">
          <mxGeometry x="80" y="425" width="180" height="120" as="geometry" />
        </mxCell>
        <mxCell id="P7BU4eLgbR2WB9yUbiBU-4" value="" style="shape=component;jettyWidth=8;jettyHeight=4;" vertex="1" parent="P7BU4eLgbR2WB9yUbiBU-3">
          <mxGeometry x="1" width="20" height="20" relative="1" as="geometry">
            <mxPoint x="-24" y="4" as="offset" />
          </mxGeometry>
        </mxCell>
        <mxCell id="P7BU4eLgbR2WB9yUbiBU-5" value="&lt;p style=&quot;margin:0px;margin-top:6px;text-align:center;&quot;&gt;&lt;b&gt;Views&lt;/b&gt;&lt;/p&gt;&lt;hr&gt;&lt;p style=&quot;margin:0px;margin-left:8px;&quot;&gt;(marketing)&lt;br&gt;(platform):&lt;/p&gt;&lt;p style=&quot;margin:0px;margin-left:8px;&quot;&gt;&lt;span style=&quot;white-space: pre;&quot;&gt;&#x9;(clerk)&lt;/span&gt;&lt;/p&gt;&lt;p style=&quot;margin:0px;margin-left:8px;&quot;&gt;&lt;span style=&quot;white-space: pre;&quot;&gt;&lt;span style=&quot;white-space: pre;&quot;&gt;&#x9;&lt;/span&gt;(dashboard):&lt;/span&gt;&lt;/p&gt;&lt;p style=&quot;margin:0px;margin-left:8px;&quot;&gt;&lt;span style=&quot;white-space: pre;&quot;&gt;&lt;span style=&quot;white-space: pre;&quot;&gt;&#x9;&lt;/span&gt;&lt;span style=&quot;white-space: pre;&quot;&gt;&#x9;board:&lt;/span&gt;&lt;/span&gt;&lt;/p&gt;&lt;p style=&quot;margin:0px;margin-left:8px;&quot;&gt;&lt;span style=&quot;white-space: pre;&quot;&gt;&lt;span style=&quot;white-space: pre;&quot;&gt;&lt;span style=&quot;white-space: pre;&quot;&gt;&#x9;&lt;/span&gt;&lt;span style=&quot;white-space: pre;&quot;&gt;&#x9;&lt;/span&gt;&lt;span style=&quot;white-space: pre;&quot;&gt;&#x9;&lt;/span&gt;[boardId]&lt;br&gt;&lt;/span&gt;&lt;/span&gt;&lt;/p&gt;&lt;p style=&quot;margin:0px;margin-left:8px;&quot;&gt;&lt;span style=&quot;white-space: pre;&quot;&gt;&lt;span style=&quot;white-space: pre;&quot;&gt;&lt;span style=&quot;white-space: pre;&quot;&gt;&#x9;&lt;/span&gt;&lt;span style=&quot;white-space: pre;&quot;&gt;&#x9;&lt;/span&gt;organization:&lt;/span&gt;&lt;/span&gt;&lt;/p&gt;&lt;p style=&quot;margin:0px;margin-left:8px;&quot;&gt;&lt;span style=&quot;white-space: pre;&quot;&gt;&lt;span style=&quot;white-space: pre;&quot;&gt;&lt;span style=&quot;white-space: pre;&quot;&gt;&#x9;&lt;/span&gt;&lt;span style=&quot;white-space: pre;&quot;&gt;&#x9;&lt;/span&gt;&lt;span style=&quot;white-space: pre;&quot;&gt;&#x9;&lt;/span&gt;[organizationId]&lt;br&gt;&lt;/span&gt;&lt;/span&gt;&lt;/p&gt;" style="align=left;overflow=fill;html=1;dropTarget=0;whiteSpace=wrap;" vertex="1" parent="1">
          <mxGeometry x="390" y="305" width="180" height="160" as="geometry" />
        </mxCell>
        <mxCell id="P7BU4eLgbR2WB9yUbiBU-6" value="" style="shape=component;jettyWidth=8;jettyHeight=4;" vertex="1" parent="P7BU4eLgbR2WB9yUbiBU-5">
          <mxGeometry x="1" width="20" height="20" relative="1" as="geometry">
            <mxPoint x="-24" y="4" as="offset" />
          </mxGeometry>
        </mxCell>
        <mxCell id="P7BU4eLgbR2WB9yUbiBU-11" value="HTTP Request" style="text;html=1;align=center;verticalAlign=middle;resizable=0;points=[];autosize=1;strokeColor=none;fillColor=none;" vertex="1" parent="1">
          <mxGeometry x="120" y="30" width="100" height="30" as="geometry" />
        </mxCell>
      </root>
    </mxGraphModel>
  </diagram>
</mxfile>
